# xmcd
#
# Track frame offsets:
#	150
#	15875
#	28976
#	41257
#	51471
#	62635
#	76783
#	86810
#	101030
#	115074
#
# Disc length: 1689 seconds
#
# Revision: 1
# Processed by: cddbd v1.5.1PL0 Copyright (c) Steve Scherf et al.
# Submitted via: audiograbber 1.82.01
#
DISCID=7506970a
DTITLE=Rainha Musical - CD2
DYEAR=2004
DGENRE=Bandinha
TTITLE0=Minha Rainha
TTITLE1=Garota Dopida
TTITLE2=Não Faz Assim Comigo
TTITLE3=Força do Amor
TTITLE4=Tira a Tristeza
TTITLE5=O Amor Ainda Existe
TTITLE6=Linda Menina
TTITLE7=Sou de Mulher
TTITLE8=Saudade Dela
TTITLE9=A Garçonete Nota Mil
EXTD=
EXTT0=
EXTT1=
EXTT2=
EXTT3=
EXTT4=
EXTT5=
EXTT6=
EXTT7=
EXTT8=
EXTT9=
PLAYORDER=
